<?xml version="1.0" standalone="no"?>
<!DOCTYPE svg PUBLIC "-//W3C//DTD SVG 20010904//EN"
 "http://www.w3.org/TR/2001/REC-SVG-20010904/DTD/svg10.dtd">
<svg version="1.0" xmlns="http://www.w3.org/2000/svg"
 width="1024.000000pt" height="1024.000000pt" viewBox="0 0 1024.000000 1024.000000"
 preserveAspectRatio="xMidYMid meet">

<g transform="translate(0.000000,1024.000000) scale(0.100000,-0.100000)"
fill="#000000" stroke="none">
<path d="M2430 9119 c-508 -57 -1032 -341 -1339 -727 -102 -129 -175 -246
-251 -405 -274 -571 -344 -1352 -185 -2061 120 -535 389 -996 726 -1246 106
-79 280 -164 389 -190 257 -63 546 -19 747 112 196 128 332 316 393 543 30
110 38 327 17 445 -44 249 -174 385 -279 291 l-33 -29 3 -154 c3 -173 -6 -226
-63 -345 -37 -80 -99 -149 -159 -177 -47 -22 -134 -18 -187 9 -156 79 -272
249 -352 515 -137 453 -109 954 73 1338 71 148 127 227 233 328 107 101 174
145 290 187 68 25 98 30 172 31 153 1 201 -24 358 -181 89 -90 221 -252 213
-261 -2 -2 -18 4 -35 12 -17 9 -70 26 -118 38 -132 32 -285 30 -488 -6 -159
-28 -253 -31 -362 -10 -26 5 -37 1 -59 -21 -25 -25 -26 -30 -20 -93 4 -48 16
-85 40 -132 19 -36 87 -170 151 -299 l117 -234 106 -107 c213 -213 399 -278
672 -236 58 9 122 19 143 22 35 6 37 5 37 -20 0 -14 14 -70 31 -123 l32 -98
-17 -86 c-22 -115 -21 -130 15 -272 24 -95 30 -136 27 -187 -6 -77 -24 -116
-107 -225 -120 -158 -174 -304 -174 -470 0 -159 37 -267 120 -354 l44 -46 -20
-60 c-49 -152 -65 -347 -36 -458 27 -105 82 -169 185 -215 85 -38 123 -82 151
-174 37 -126 76 -196 153 -274 40 -40 84 -76 99 -79 27 -7 27 -7 27 -99 0
-201 72 -321 270 -449 91 -59 148 -113 173 -162 25 -49 30 -115 14 -163 l-15
-42 37 0 c48 0 135 42 157 75 l17 26 69 -68 c78 -77 92 -108 106 -235 16 -148
75 -239 214 -335 75 -51 97 -109 99 -260 1 -46 4 -83 8 -83 15 0 90 88 111
129 12 24 28 80 37 125 20 105 30 124 105 188 34 29 79 70 99 91 43 44 104
155 114 207 14 75 29 104 86 168 32 36 59 70 59 76 0 5 10 -6 23 -25 30 -45
98 -79 159 -79 l48 0 -17 27 c-25 37 -22 126 5 178 28 55 71 93 179 159 102
63 164 125 210 212 35 67 63 185 63 271 l0 58 46 25 c87 45 192 204 228 342
23 86 59 127 156 177 189 97 237 307 144 638 l-26 92 34 30 c80 70 132 217
131 366 -1 178 -48 307 -177 483 -113 155 -126 215 -81 377 35 126 41 205 21
288 -22 94 -20 120 14 217 16 47 30 95 30 108 0 17 4 22 18 18 165 -47 373
-55 492 -18 233 74 409 236 532 492 33 69 96 198 140 287 76 152 81 167 82
229 1 58 -2 68 -24 86 -17 14 -33 18 -55 14 -113 -21 -201 -18 -345 10 -230
44 -430 35 -595 -27 -27 -10 -51 -19 -53 -19 -15 0 150 209 242 308 72 76 120
106 206 126 84 20 138 20 219 0 289 -72 544 -343 666 -706 59 -178 78 -310 79
-558 0 -181 -3 -235 -23 -343 -62 -353 -153 -564 -303 -703 -108 -100 -204
-127 -295 -83 -86 42 -173 171 -209 310 -13 51 -15 93 -11 204 6 157 -1 183
-52 205 -96 39 -197 -61 -247 -245 -25 -94 -31 -351 -9 -456 48 -240 188 -453
383 -583 84 -56 155 -88 271 -123 77 -23 103 -26 251 -27 151 -1 173 1 264 27
245 68 448 207 641 438 226 271 387 629 474 1055 44 217 61 371 68 614 11 430
-37 771 -163 1152 -46 138 -172 396 -249 508 -206 303 -481 530 -835 691 -303
137 -560 187 -895 176 -194 -7 -305 -23 -490 -72 -434 -113 -684 -282 -1119
-753 l-130 -141 -28 21 c-80 56 -224 80 -329 54 l-65 -17 -68 32 c-117 55
-270 49 -381 -15 -37 -21 -43 -22 -74 -9 -87 36 -223 24 -336 -32 l-50 -25
-69 78 c-135 150 -412 419 -499 484 -295 219 -626 346 -1009 387 -112 13 -338
12 -448 0z m143 -173 c-92 -101 -153 -246 -169 -404 l-6 -67 -149 0 -149 -1 0
62 c0 89 18 209 41 268 23 62 85 147 120 163 27 13 232 40 317 42 l54 1 -59
-64z m239 54 l30 0 -51 -46 c-105 -94 -199 -275 -223 -428 l-12 -71 -58 9 -58
10 0 45 c0 72 37 207 77 284 23 43 64 98 106 140 l69 70 45 -7 c25 -3 59 -6
75 -6z m4814 -63 c80 -82 124 -158 153 -269 24 -89 36 -184 25 -191 -5 -2 -32
-8 -61 -12 l-51 -7 -12 59 c-34 174 -98 300 -207 410 l-71 72 51 4 c29 2 63 4
77 5 18 2 42 -16 96 -71z m277 48 c54 -7 100 -15 101 -17 51 -68 90 -132 105
-174 26 -68 44 -214 36 -282 -6 -45 -9 -52 -23 -46 -9 4 -77 9 -149 12 l-133
4 0 40 c0 58 -29 185 -57 253 -29 69 -70 132 -128 194 l-40 44 95 -8 c52 -3
139 -13 193 -20z m-4848 -21 c39 -8 105 -24 149 -36 l78 -21 -58 -31 c-136
-71 -280 -258 -340 -439 -21 -64 -29 -77 -43 -71 -57 24 -144 53 -194 64 l-57
13 6 36 c33 200 115 355 248 470 54 47 53 47 211 15z m4324 -4 c124 -90 217
-236 256 -402 24 -102 23 -104 -42 -123 -46 -13 -176 -59 -203 -73 -3 -1 -18
36 -34 84 -59 174 -187 340 -322 419 l-67 40 56 17 c52 16 277 66 303 67 6 1
30 -13 53 -29z m-5213 -33 c-64 -83 -96 -198 -102 -362 -4 -104 -5 -110 -27
-117 -49 -14 -54 -10 -66 49 -23 117 -7 237 46 334 32 60 63 89 116 110 59 24
61 23 33 -14z m6020 -41 c24 -28 54 -76 66 -106 40 -105 33 -359 -10 -346 -9
3 -28 8 -42 11 -25 6 -25 6 -22 112 4 138 -15 226 -71 325 l-43 75 38 -10 c27
-7 52 -25 84 -61z m-6191 -14 c-63 -95 -88 -246 -61 -371 9 -41 14 -77 11 -79
-3 -4 -55 -18 -202 -58 -19 -5 -22 0 -33 52 -7 32 -10 100 -8 153 3 78 9 108
32 158 16 34 36 69 45 77 15 14 214 104 234 105 4 1 -4 -16 -18 -37z m6340 -3
c112 -46 130 -61 166 -135 30 -60 34 -79 37 -167 5 -122 -11 -212 -36 -202
-10 3 -55 16 -102 27 -47 11 -90 22 -96 23 -8 2 -7 23 3 72 29 135 1 306 -63
390 l-27 35 24 -7 c13 -4 56 -20 94 -36z m-4894 -20 c84 -40 108 -59 74 -59
-9 0 -41 -13 -73 -29 -171 -86 -297 -235 -370 -433 l-27 -75 -77 44 -76 45 15
51 c25 89 99 229 157 299 58 70 153 144 227 178 24 11 48 20 52 20 5 0 49 -19
98 -41z m3550 0 c129 -69 258 -222 318 -379 51 -131 53 -121 -30 -168 -39 -23
-75 -42 -78 -42 -4 0 -15 26 -25 58 -64 204 -223 380 -415 458 l-56 23 85 40
c47 22 98 41 114 41 15 0 55 -14 87 -31z m-3318 -128 c40 -26 97 -68 127 -92
l54 -43 -71 -21 c-194 -60 -346 -199 -497 -458 l-22 -39 -45 41 c-24 23 -65
58 -91 78 -27 20 -48 41 -48 45 0 24 64 177 96 229 48 80 141 178 212 225 64
43 156 83 190 84 13 0 55 -22 95 -49z m3109 5 c163 -80 290 -227 357 -412 l29
-80 -95 -80 -96 -80 -28 52 c-117 223 -285 373 -491 439 l-68 22 63 50 c34 28
89 70 122 92 73 50 100 50 207 -3z m1888 -39 c25 -17 85 -62 134 -101 l88 -71
-5 -80 c-6 -101 -45 -224 -95 -301 -24 -37 -81 -96 -150 -157 -62 -54 -135
-126 -164 -160 -28 -34 -54 -62 -57 -62 -5 0 -147 69 -170 82 -5 3 37 67 135
203 45 63 100 149 122 191 l39 77 56 -30 c31 -17 75 -46 97 -65 22 -19 40 -30
40 -25 0 16 -105 109 -147 130 l-41 21 14 58 c22 92 18 226 -9 305 l-23 68 45
-27 c25 -14 66 -40 91 -56z m-6990 4 c-29 -90 -26 -227 6 -332 3 -12 -9 -25
-38 -42 -53 -31 -125 -92 -139 -118 -7 -13 6 -8 38 17 48 37 150 92 155 83 2
-2 18 -34 36 -71 19 -37 83 -136 143 -220 60 -84 109 -158 109 -164 0 -7 -16
-18 -35 -24 -20 -7 -59 -27 -87 -46 -28 -19 -52 -33 -52 -32 -28 45 -126 153
-199 215 -51 45 -110 100 -130 122 -71 78 -124 218 -134 347 l-6 80 84 68 c80
64 260 188 266 183 1 -2 -7 -31 -17 -66z m2289 -215 l74 -74 -44 -12 c-76 -20
-83 -22 -150 -56 -137 -68 -275 -201 -372 -356 -23 -37 -44 -67 -47 -68 -3 0
-34 29 -69 64 l-63 63 23 44 c71 140 200 292 311 366 64 42 210 103 248 103 9
0 49 -33 89 -74z m2476 50 c190 -61 358 -211 465 -419 l35 -67 -66 -66 -66
-66 -27 46 c-121 206 -304 362 -498 423 l-88 28 72 73 c40 39 78 72 85 72 7 0
46 -11 88 -24z m2535 -184 c0 -43 -7 -105 -15 -137 -29 -114 -61 -163 -168
-265 -55 -52 -156 -150 -225 -218 l-125 -123 -25 25 -26 25 59 76 c32 42 124
139 206 216 119 114 154 153 182 207 43 82 73 179 83 263 l7 63 23 -28 c21
-23 24 -38 24 -104z m-7629 -90 c43 -133 82 -184 266 -349 50 -46 123 -123
162 -172 l71 -90 -27 -20 c-14 -12 -29 -21 -34 -21 -4 0 -42 38 -85 85 -43 47
-128 128 -188 180 -108 91 -167 157 -199 221 -31 60 -57 177 -57 253 0 64 3
78 22 99 l23 24 12 -72 c7 -40 22 -102 34 -138z m1021 182 c45 -8 47 -12 78
-219 18 -123 37 -209 56 -260 5 -13 -1 -15 -47 -9 -30 3 -65 1 -79 -5 -20 -8
-10 -10 55 -11 l80 0 23 -52 c12 -28 21 -53 19 -55 -2 -1 -41 2 -87 9 -113 16
-132 39 -201 243 -18 55 -62 156 -96 224 -35 68 -63 125 -63 127 0 11 203 17
262 8z m5755 -8 c3 -3 -16 -47 -42 -98 -27 -51 -74 -163 -107 -248 -32 -85
-70 -173 -86 -194 -27 -39 -29 -40 -116 -53 -49 -7 -90 -12 -91 -10 -1 1 8 26
21 55 l24 52 77 0 c62 1 74 3 59 12 -11 6 -41 8 -73 5 -47 -5 -53 -4 -49 11
17 58 28 117 56 280 16 100 30 184 30 187 0 14 283 15 297 1z m-5995 -124 c32
-64 75 -166 97 -227 55 -156 59 -166 87 -202 l25 -33 -33 0 c-30 0 -38 7 -78
67 -24 37 -63 113 -86 168 -23 55 -64 151 -92 212 l-50 113 31 9 c18 5 34 9
37 9 3 0 31 -52 62 -116z m372 107 l43 -11 17 -169 c19 -185 36 -265 67 -315
15 -25 59 -136 59 -150 0 -2 -19 6 -43 17 -37 18 -45 28 -65 81 -12 33 -19 65
-16 69 3 5 1 9 -5 9 -15 0 -49 115 -67 225 -9 55 -21 135 -28 178 -7 42 -11
77 -9 77 2 0 23 -5 47 -11z m5292 3 c-3 -5 -19 -89 -35 -188 -35 -208 -39
-220 -88 -335 -36 -80 -41 -87 -79 -101 l-42 -15 11 31 c5 17 23 54 38 81 15
28 34 77 43 110 15 62 46 307 46 369 0 31 4 37 33 45 41 12 80 13 73 3z m442
-16 c1 -2 -16 -43 -39 -92 -22 -49 -61 -140 -85 -201 -66 -169 -136 -274 -178
-266 l-24 5 29 46 c16 26 49 106 74 177 25 72 69 178 98 237 l52 108 35 -6
c19 -3 36 -7 38 -8z m-6194 -188 c43 -101 85 -201 94 -223 9 -22 36 -65 59
-97 l42 -57 -42 -11 c-23 -6 -59 -16 -80 -22 -20 -6 -39 -9 -41 -7 -2 2 -28
42 -58 89 -30 47 -89 132 -132 189 -82 111 -153 238 -139 251 6 7 189 65 214
69 4 1 41 -81 83 -181z m622 158 c69 -23 174 -72 174 -81 0 -2 -9 -62 -21
-132 -24 -149 -21 -226 16 -374 14 -53 28 -104 31 -113 4 -11 -10 -6 -44 16
-28 18 -57 38 -66 43 -18 11 -81 175 -67 175 4 0 30 -7 57 -15 44 -12 47 -12
29 1 -11 8 -39 20 -63 26 -56 14 -75 50 -95 183 -17 107 -33 295 -25 295 2 0
36 -11 74 -24z m4969 -193 c-8 -75 -22 -160 -30 -188 -15 -50 -17 -52 -68 -68
-29 -9 -62 -24 -72 -33 -11 -8 -14 -12 -7 -9 8 4 36 13 64 20 37 10 48 11 44
2 -2 -7 -17 -42 -33 -79 -28 -67 -33 -73 -126 -133 l-28 -18 10 26 c20 51 51
239 51 305 0 60 -22 230 -36 274 -6 21 65 60 171 94 l70 22 3 -39 c2 -22 -4
-101 -13 -176z m750 186 c46 -12 92 -27 102 -35 17 -12 16 -17 -16 -80 -19
-36 -75 -123 -125 -193 -50 -69 -111 -157 -135 -194 -49 -76 -37 -73 -149 -41
l-53 16 34 46 c41 56 70 111 98 189 46 127 133 313 146 313 8 0 52 -10 98 -21z
m-4185 -119 c0 -4 -27 -14 -59 -24 -155 -46 -384 -243 -487 -418 l-51 -87 -72
80 -73 79 32 53 c141 231 316 376 513 427 l72 18 63 -61 c34 -34 62 -64 62
-67z m2106 89 c117 -44 238 -132 331 -240 51 -59 143 -198 143 -214 -1 -5 -32
-43 -69 -83 l-68 -74 -68 103 c-123 185 -305 341 -454 390 -36 12 -68 23 -70
26 -3 2 23 32 58 67 62 62 63 63 101 55 21 -5 65 -19 96 -30z m2849 -129 c88
-131 155 -263 155 -303 0 -95 -61 -220 -149 -308 -74 -74 -156 -123 -281 -169
-95 -35 -156 -67 -184 -99 l-20 -22 -29 48 -30 47 50 46 c27 25 78 60 114 79
149 78 230 153 283 259 36 71 27 78 -12 9 -42 -75 -120 -141 -250 -215 -62
-35 -134 -81 -161 -102 l-48 -38 -58 70 -57 71 24 21 c14 11 49 50 79 85 30
35 104 106 166 157 121 101 177 167 218 256 29 64 54 172 55 238 l1 45 35 -40
c20 -22 64 -83 99 -135z m-7910 -26 c38 -132 108 -228 250 -344 39 -32 116
-106 170 -164 l97 -106 -33 -37 c-19 -21 -43 -51 -55 -67 l-21 -29 -71 55
c-40 30 -110 75 -156 101 -107 59 -184 129 -224 204 -17 32 -32 52 -32 44 0
-21 59 -126 96 -169 18 -21 64 -58 101 -82 108 -68 195 -128 232 -158 l34 -29
-29 -44 c-15 -24 -29 -46 -31 -48 -1 -2 -19 11 -39 28 -38 34 -62 46 -202 105
-120 50 -188 93 -258 161 -67 67 -105 136 -131 239 l-16 68 42 87 c47 95 128
223 200 316 l46 60 7 -67 c3 -37 14 -93 23 -124z m1693 56 c84 -58 95 -68 88
-78 -8 -13 -34 -225 -37 -297 -1 -33 -4 -63 -6 -67 -1 -3 -30 10 -63 30 -72
42 -75 50 -75 187 0 90 21 265 32 265 2 0 30 -18 61 -40z m4448 -56 c14 -92
18 -223 8 -284 -5 -30 -15 -40 -68 -71 l-61 -37 -11 118 c-7 65 -17 150 -24
190 -9 55 -9 74 0 85 15 19 133 96 138 91 2 -2 10 -44 18 -92z m-3091 -36 l57
-62 -63 -20 c-137 -45 -234 -122 -358 -285 -67 -88 -108 -132 -151 -161 l-58
-40 -41 49 c-23 27 -41 54 -41 60 0 26 119 200 183 268 75 78 175 157 247 193
47 24 137 58 156 59 7 1 38 -27 69 -61z m1822 30 c82 -30 201 -113 282 -197
63 -65 211 -269 211 -289 0 -4 -20 -29 -44 -57 l-44 -50 -35 17 c-53 25 -102
72 -166 162 -64 88 -194 219 -254 255 -21 13 -66 33 -101 45 l-63 22 54 62
c61 69 57 68 160 30z m-985 -20 c-11 -13 -25 -36 -31 -51 -11 -27 -10 -27 37
12 52 44 82 50 141 30 l31 -11 -28 -33 c-16 -17 -40 -54 -53 -81 -22 -44 -24
-59 -21 -159 8 -270 9 -257 -18 -310 -20 -40 -40 -60 -100 -100 -96 -64 -115
-98 -115 -210 0 -89 16 -129 86 -221 51 -66 68 -110 77 -197 l8 -72 12 67 c15
84 3 125 -72 241 -104 159 -102 266 8 344 111 79 145 134 146 232 l1 36 19
-36 c24 -46 101 -131 134 -148 14 -8 26 -21 26 -30 0 -37 -50 -119 -91 -152
-78 -61 -137 -126 -144 -158 -9 -44 -23 -38 -31 14 -9 65 1 91 60 154 64 67
85 105 91 168 l5 48 -14 -43 c-19 -59 -59 -114 -114 -159 -55 -45 -86 -110
-77 -162 7 -44 105 -251 118 -251 5 0 7 14 3 33 -30 140 -13 186 108 302 71
67 87 89 101 135 10 30 19 56 20 58 2 2 17 -4 35 -13 30 -15 31 -19 25 -58
-20 -128 -52 -172 -147 -207 -81 -30 -97 -44 -38 -35 139 23 212 93 227 216 5
45 8 49 27 42 12 -5 66 -8 121 -8 89 0 106 3 151 27 67 35 138 114 154 173 19
66 8 159 -25 225 -15 30 -62 91 -104 134 -79 82 -64 77 51 -18 98 -81 118
-112 130 -200 8 -53 8 -87 0 -117 -6 -24 -9 -45 -7 -48 9 -9 43 86 51 139 l7
55 15 -35 c32 -77 11 -165 -59 -245 -38 -43 -26 -45 29 -5 48 34 92 105 99
158 l4 37 143 -140 c123 -121 146 -148 164 -196 27 -73 33 -135 12 -130 -8 2
-37 10 -65 17 -47 13 -134 20 -124 10 3 -3 36 -10 74 -16 105 -16 122 -25 128
-68 2 -20 3 -38 2 -40 -2 -2 -18 6 -36 17 -53 32 -57 25 -12 -21 59 -61 150
-211 173 -286 18 -57 26 -122 16 -122 -2 0 -25 9 -51 21 -68 30 -163 24 -228
-15 -56 -32 -56 -42 0 -27 66 19 153 13 208 -13 56 -26 142 -112 174 -173 40
-80 43 -119 15 -204 l-25 -76 -33 33 c-38 38 -72 48 -39 12 33 -37 54 -87 60
-143 5 -47 1 -63 -33 -135 l-38 -81 12 -83 c27 -187 6 -300 -76 -409 -101
-133 -148 -233 -161 -342 l-7 -60 -13 56 c-6 31 -15 101 -19 155 l-8 99 -13
-57 c-8 -39 -11 -118 -9 -240 2 -141 0 -193 -12 -228 l-14 -45 -7 105 c-5 83
-14 126 -42 205 -20 55 -36 94 -36 87 -1 -7 10 -74 24 -148 31 -168 31 -221 2
-309 l-24 -70 -6 105 c-7 110 -21 176 -57 273 -24 63 -36 73 -20 16 17 -58 42
-341 34 -394 -7 -50 -36 -129 -51 -138 -4 -3 -9 32 -9 78 -1 46 -7 107 -13
136 -13 62 -72 232 -78 225 -2 -2 6 -41 19 -87 19 -71 22 -109 23 -249 0 -155
-1 -168 -24 -215 l-25 -50 -7 135 c-4 74 -12 158 -18 185 -14 60 -52 178 -56
173 -2 -2 4 -32 13 -68 11 -45 16 -113 16 -220 1 -191 -12 -366 -25 -332 -27
71 -48 321 -54 647 l-4 220 20 -27 c54 -72 58 -71 23 7 -37 82 -60 208 -32
174 39 -47 128 -139 128 -132 0 5 -27 48 -60 97 -32 48 -62 97 -66 108 -8 25
4 106 17 113 5 4 9 2 9 -2 0 -5 27 -42 60 -82 33 -41 60 -71 60 -67 0 12 -48
99 -79 146 -17 25 -31 48 -31 52 0 3 12 20 26 37 l26 31 25 -20 c14 -11 47
-26 72 -34 25 -8 63 -21 83 -30 80 -34 156 -16 234 56 43 39 104 129 104 153
0 6 -13 -13 -29 -40 -52 -91 -154 -164 -229 -165 -43 0 -143 34 -195 67 l-41
26 29 15 c22 11 48 13 106 9 90 -7 149 7 210 49 54 37 49 46 -11 16 -66 -33
-122 -38 -208 -18 -98 22 -125 20 -161 -10 -39 -32 -39 -21 -2 38 36 56 59 62
154 37 125 -32 188 -22 260 42 28 24 59 65 78 104 27 54 31 76 33 145 l1 81
40 -3 40 -3 0 -57 c0 -31 3 -59 6 -63 9 -8 40 37 64 93 18 42 18 43 -2 70 -54
73 -224 82 -356 20 -87 -42 -184 -121 -226 -185 -53 -79 -35 -29 55 152 72
147 93 181 135 219 107 96 298 126 394 60 l36 -24 -7 22 c-24 80 -99 123 -214
122 -100 0 -153 -25 -239 -112 -56 -56 -81 -94 -153 -232 -123 -234 -172 -375
-224 -645 -24 -127 -27 -171 -34 -470 -4 -181 -10 -341 -14 -355 -5 -20 -3
-19 8 5 9 17 15 38 16 47 0 9 4 19 8 22 15 9 41 -167 45 -301 4 -131 3 -132
-13 -95 -9 20 -32 81 -50 135 -18 53 -34 96 -36 94 -7 -7 58 -244 111 -407 62
-194 80 -282 73 -377 -8 -104 -45 -178 -132 -261 -118 -111 -265 -169 -406
-159 -99 7 -137 19 -212 70 -78 52 -108 101 -108 175 0 76 22 116 92 163 33
23 71 59 86 81 48 71 119 142 179 177 118 69 167 107 195 150 24 38 28 55 28
115 0 73 -18 124 -61 176 -17 21 -20 21 -14 5 4 -11 9 -60 12 -110 5 -82 3
-92 -17 -117 -16 -22 -30 -28 -59 -28 -58 0 -125 -27 -171 -70 -43 -40 -47
-36 -23 26 4 11 3 15 -4 11 -6 -4 -26 -42 -43 -85 -37 -89 -66 -130 -49 -68
13 46 3 62 -11 20 -18 -50 -44 -98 -58 -102 -6 -2 -16 6 -20 18 -6 17 -12 5
-26 -57 -10 -43 -22 -84 -26 -92 -8 -16 -12 -4 -31 107 -7 39 -15 72 -19 72
-4 0 -12 -36 -18 -81 -17 -120 -25 -125 -51 -32 -11 44 -21 88 -22 99 -1 14
-3 13 -8 -6 -12 -42 -34 -28 -69 40 -23 47 -31 57 -28 35 3 -16 8 -39 12 -50
6 -18 5 -18 -9 -5 -8 8 -30 52 -47 97 -34 91 -56 120 -34 46 8 -25 13 -47 12
-49 -2 -1 -14 13 -28 31 -46 61 -115 95 -192 95 -25 0 -45 7 -59 21 -19 19
-21 30 -17 135 2 63 2 114 1 114 -2 0 -17 -28 -35 -62 -26 -51 -32 -75 -32
-123 1 -105 52 -171 198 -257 85 -50 146 -105 191 -172 19 -28 64 -76 102
-107 37 -30 74 -66 80 -80 21 -40 16 -146 -7 -184 -23 -38 -90 -83 -170 -116
-75 -31 -218 -31 -304 0 -218 79 -354 228 -364 402 -6 97 13 183 84 394 30 88
61 185 69 215 8 30 22 77 30 105 21 68 3 44 -24 -32 -12 -34 -33 -86 -46 -115
l-24 -53 0 130 c0 72 6 171 14 220 8 50 15 95 15 100 0 6 9 -14 19 -43 10 -29
24 -59 30 -65 9 -9 9 -4 0 18 -9 21 -15 130 -20 350 -8 405 -28 538 -119 820
-44 134 -156 364 -225 460 -49 69 -118 136 -166 161 -52 26 -157 30 -218 8
-63 -22 -116 -64 -129 -103 l-10 -29 34 23 c98 66 295 36 404 -62 44 -39 63
-70 135 -220 47 -96 85 -176 85 -177 0 -2 -37 34 -82 78 -48 47 -108 94 -143
113 -149 78 -316 84 -387 13 -34 -35 -35 -60 -3 -128 32 -69 50 -64 50 14 l0
59 43 6 42 5 0 -60 c0 -147 63 -265 165 -312 62 -29 118 -30 210 -4 38 11 78
20 89 20 22 0 81 -59 89 -89 5 -19 4 -19 -39 1 -43 21 -43 21 -143 3 -107 -19
-168 -14 -235 20 -41 22 -43 12 -4 -18 50 -37 96 -48 199 -46 102 2 152 -7
146 -25 -6 -19 -143 -84 -192 -92 -89 -13 -160 26 -235 129 -23 31 -44 57 -47
57 -10 0 45 -86 82 -128 46 -52 103 -81 161 -82 43 0 188 49 241 81 l33 20 25
-27 c14 -15 25 -32 25 -39 0 -6 -18 -37 -40 -68 -35 -49 -76 -127 -67 -127 1
0 32 34 67 76 60 70 65 74 71 52 18 -61 10 -94 -42 -174 -28 -44 -60 -89 -72
-101 -11 -13 -18 -25 -15 -28 3 -3 38 29 78 71 l73 77 -7 -56 c-7 -54 -32
-132 -62 -189 -23 -44 -10 -33 31 27 21 30 40 55 43 55 3 0 1 -28 -3 -62 -4
-35 -9 -137 -11 -228 -4 -236 -19 -443 -40 -530 l-18 -75 -8 50 c-5 28 -10
145 -11 260 -2 176 1 219 16 267 9 32 20 65 23 75 3 10 -6 -3 -21 -29 -38 -71
-56 -166 -64 -328 l-6 -145 -18 38 c-44 91 -48 303 -8 456 33 124 21 119 -23
-10 -31 -92 -40 -134 -45 -216 -3 -56 -9 -104 -12 -107 -12 -12 -52 99 -57
154 -4 59 22 309 39 374 16 60 3 53 -21 -11 -32 -83 -60 -226 -60 -308 l-1
-70 -19 45 c-31 77 -34 161 -11 295 11 66 25 135 31 154 19 68 3 39 -36 -62
-34 -88 -40 -116 -44 -207 l-5 -105 -19 59 c-16 53 -18 81 -12 240 5 143 4
192 -8 231 l-14 50 -1 -70 c-1 -38 -9 -110 -18 -160 l-17 -90 -7 50 c-16 126
-67 243 -154 357 -79 104 -90 148 -90 353 0 162 -1 172 -25 215 -44 82 -29
216 32 286 41 47 15 43 -33 -4 l-38 -39 -10 26 c-38 103 -43 123 -38 158 16
98 116 227 211 271 52 25 160 30 215 11 18 -6 34 -9 36 -7 10 9 -81 58 -126
67 -49 11 -80 5 -182 -34 -16 -7 -17 -3 -11 36 16 104 111 288 192 372 l37 38
-33 -12 c-17 -6 -35 -15 -38 -20 -12 -20 -20 -7 -16 26 3 26 12 40 31 50 l26
15 -27 -6 c-26 -6 -28 -4 -28 28 0 19 10 63 22 98 20 60 31 74 170 211 143
141 148 145 148 115 0 -50 49 -136 98 -173 59 -45 72 -41 29 6 -20 22 -44 55
-53 73 -22 40 -24 131 -4 173 l14 30 3 -35 c4 -38 31 -130 42 -142 4 -5 5 34
3 85 -5 120 7 146 125 253 137 124 143 121 20 -13 -135 -148 -142 -324 -17
-437 70 -63 120 -81 230 -81 52 0 104 2 115 5 18 4 20 -2 27 -59 15 -134 65
-205 201 -285 123 -72 147 -79 100 -29 -74 80 -97 124 -101 190 -6 83 23 141
122 250 56 61 79 95 90 132 15 51 33 211 23 211 -3 0 -10 -30 -16 -66 -21
-120 -46 -169 -136 -265 -92 -100 -136 -177 -143 -250 -4 -47 -6 -49 -23 -33
-29 27 -59 101 -66 166 -6 56 -4 62 18 79 36 28 40 23 19 -23 -11 -24 -19 -61
-19 -83 l0 -40 13 40 c23 74 56 124 124 192 83 84 117 140 143 240 32 122 8
251 -62 339 -16 20 -28 39 -26 41 15 14 121 42 161 43 l49 0 -21 -22z m-1908
-178 c-15 -34 -63 -192 -75 -244 -7 -31 -14 -56 -16 -56 -2 0 -28 19 -58 43
l-54 42 0 65 c-1 64 22 263 34 301 6 16 18 8 91 -58 59 -54 82 -82 78 -93z
m1579 150 c65 -24 128 -85 163 -156 23 -48 26 -63 22 -141 -6 -144 -57 -227
-195 -319 -108 -71 -223 -98 -323 -74 -77 18 -152 93 -175 173 -32 110 11 211
108 252 49 20 95 19 135 -5 41 -25 56 -58 48 -104 -12 -63 -76 -94 -124 -60
-28 20 -30 59 -2 51 23 -6 56 16 46 31 -8 13 -55 16 -72 4 -15 -10 -34 -47
-34 -66 0 -9 12 -29 28 -46 79 -89 255 -17 296 121 30 99 16 201 -35 255 -11
11 -42 31 -70 44 -47 23 -49 25 -27 33 78 31 141 33 211 7z m812 -1 l40 -11
-37 -19 c-47 -24 -96 -84 -109 -134 -17 -60 -5 -149 28 -214 61 -119 216 -159
283 -73 39 49 11 112 -51 112 -26 0 -30 -3 -27 -22 2 -18 10 -23 32 -23 37 0
43 -18 17 -44 -25 -25 -51 -26 -91 -6 -95 49 -42 185 72 185 47 0 119 -39 145
-79 64 -96 49 -214 -38 -299 -54 -53 -94 -67 -189 -67 -79 0 -91 3 -173 43
-101 49 -190 130 -226 205 -91 189 -21 384 161 449 54 19 88 18 163 -3z m1588
-86 c9 -60 18 -145 22 -190 l5 -82 -59 -45 c-33 -25 -62 -46 -65 -46 -3 0 -6
8 -6 19 0 10 -16 70 -36 132 -19 63 -38 125 -41 137 -5 20 8 38 73 103 43 43
81 79 85 79 4 0 14 -48 22 -107z m-2818 -19 c-189 -134 -278 -209 -374 -318
-58 -65 -132 -138 -165 -162 l-59 -43 -19 25 c-11 14 -19 26 -17 27 77 46 130
93 186 166 88 114 125 153 203 211 79 58 134 86 203 104 57 15 73 11 42 -10z
m216 -5 c72 -36 108 -144 75 -224 l-17 -40 -24 48 c-46 96 -107 135 -191 123
l-44 -6 21 23 c11 12 34 41 51 65 27 40 32 43 61 36 18 -3 48 -15 68 -25z
m1186 -34 l42 -61 -35 4 c-76 9 -157 -45 -185 -123 -15 -39 -24 -43 -38 -17
-45 85 -3 195 94 247 51 26 75 16 122 -50z m194 23 c110 -51 169 -106 347
-324 43 -52 117 -113 155 -127 8 -3 4 -13 -9 -27 -16 -16 -28 -20 -44 -15 -25
8 -146 126 -262 256 -67 75 -132 128 -315 257 -33 23 69 7 128 -20z m-2659
-114 l55 -67 -48 -106 c-26 -59 -51 -119 -54 -134 -4 -15 -10 -27 -14 -27 -4
0 -26 20 -50 44 l-44 45 12 63 c15 74 72 248 82 248 3 0 31 -30 61 -66z m3703
-53 c19 -56 37 -123 41 -149 5 -45 4 -48 -38 -90 l-44 -43 -56 131 -56 131 55
65 c30 36 57 63 60 61 2 -3 19 -51 38 -106z m-6112 -24 c11 -68 70 -170 137
-238 77 -77 170 -134 310 -189 155 -60 204 -104 171 -153 l-17 -26 -59 36
c-33 20 -107 56 -165 81 -220 94 -308 161 -369 283 -49 97 -57 136 -41 194 15
54 25 57 33 12z m8455 -78 c-3 -25 -20 -78 -38 -118 -53 -115 -114 -164 -339
-274 -102 -49 -203 -101 -224 -114 -22 -14 -40 -23 -42 -21 -1 2 -10 17 -19
35 l-16 32 40 34 c23 19 79 49 128 67 261 99 401 222 463 408 l22 67 15 -35
c8 -20 12 -54 10 -81z m-7345 71 l18 -30 -31 -18 c-17 -9 -54 -32 -82 -50
l-51 -33 -30 29 -29 30 48 27 c27 15 67 38 89 51 22 13 42 23 45 24 3 0 14
-14 23 -30z m6385 -68 c1 -5 -7 -21 -19 -36 l-21 -27 -32 21 c-17 11 -53 32
-81 47 -27 14 -52 27 -53 28 -2 2 6 17 19 34 l22 30 81 -44 c44 -24 82 -48 84
-53z m-1049 -3 c-18 -79 -24 -89 -71 -135 -30 -29 -48 -41 -43 -29 4 11 10 51
12 88 6 67 6 68 61 117 31 27 57 48 58 47 2 -2 -6 -41 -17 -88z m-4423 35 c39
-31 42 -37 48 -99 4 -36 11 -76 16 -90 13 -35 0 -31 -42 13 -26 27 -43 59 -62
120 -37 119 -37 118 40 56z m540 -65 c55 -67 57 -72 43 -94 -7 -13 -43 -66
-78 -118 l-64 -94 -42 55 -42 56 23 55 c35 86 92 211 97 211 3 0 31 -32 63
-71z m3444 -121 l32 -77 -44 -54 -45 -55 -33 57 c-19 31 -51 79 -73 108 -21
29 -37 57 -35 63 2 6 28 42 58 80 l55 69 27 -57 c15 -31 41 -92 58 -134z
m-3780 -75 c0 -32 3 -69 6 -83 5 -22 0 -19 -34 18 -40 45 -76 131 -88 211 l-7
44 62 -66 c60 -65 61 -67 61 -124z m4080 137 c-14 -75 -49 -153 -87 -195 l-36
-40 7 49 c3 27 6 64 6 82 0 26 12 45 56 94 31 33 58 59 60 58 1 -2 -1 -23 -6
-48z m563 43 c-7 -2 -21 -2 -30 0 -10 3 -4 5 12 5 17 0 24 -2 18 -5z m-6807
-220 c64 -64 89 -80 211 -138 226 -108 308 -153 306 -167 -5 -33 -71 -203 -79
-203 -5 0 -40 8 -79 18 -38 9 -110 22 -158 27 -49 6 -110 18 -135 26 -143 48
-292 195 -292 289 0 42 28 161 67 282 l27 82 30 -72 c23 -58 44 -86 102 -144z
m1452 202 c2 -1 -4 -5 -12 -8 -8 -3 -22 1 -33 9 -17 13 -16 14 12 8 17 -4 31
-8 33 -9z m5459 -1 c-16 -9 -36 -12 -45 -8 -13 6 -11 9 13 14 50 12 62 10 32
-6z m1594 -264 l21 -96 -25 -50 c-47 -92 -158 -185 -268 -224 -31 -10 -96 -24
-145 -30 -49 -6 -120 -19 -159 -28 -38 -9 -74 -17 -79 -17 -5 0 -23 41 -41 90
-17 50 -35 97 -39 105 -7 18 82 69 244 140 226 99 335 198 400 365 12 29 13
28 41 -65 16 -52 38 -138 50 -190z m-7136 240 c3 -6 3 -10 -2 -10 -11 1 -43
26 -43 34 0 9 37 -11 45 -24z m-64 -9 l24 -19 -30 -12 c-24 -9 -36 -8 -67 6
-45 20 -48 31 -10 37 53 8 60 7 83 -12z m5654 9 c-3 -5 -12 -10 -18 -10 -7 0
-6 4 3 10 19 12 23 12 15 0z m100 4 c13 -5 10 -10 -15 -25 -17 -11 -40 -19
-53 -19 -21 1 -21 1 6 25 30 27 36 29 62 19z m118 -31 c14 -4 4 -14 -40 -38
-55 -31 -59 -32 -88 -17 l-29 15 54 28 c30 15 62 26 70 22 8 -3 23 -8 33 -10z
m-5978 -15 c49 -24 55 -33 26 -43 -27 -8 -130 43 -110 56 21 13 34 11 84 -13z
m-99 -38 c32 -11 65 -23 73 -25 11 -4 8 -10 -10 -22 -13 -9 -36 -27 -51 -41
-26 -24 -27 -24 -112 -12 -47 7 -88 16 -91 20 -3 5 7 18 22 30 24 19 34 20
111 14 96 -8 106 5 22 27 -32 8 -46 16 -38 21 7 4 13 8 14 8 0 0 27 -9 60 -20z
m1491 -139 c-40 -42 -82 -89 -93 -105 l-21 -29 -23 37 -22 37 32 52 c18 29 53
78 79 110 l46 58 38 -42 37 -42 -73 -76z m3213 26 l60 -88 -24 -35 -23 -35
-29 38 c-15 21 -55 66 -87 100 l-59 62 34 44 33 45 18 -21 c10 -12 45 -62 77
-110z m1446 126 c13 -5 1 -13 -47 -30 l-64 -23 100 5 c97 5 100 4 128 -22 l28
-28 -68 -11 c-114 -20 -133 -18 -182 25 l-43 38 63 26 c35 14 65 26 66 26 1 1
9 -2 19 -6z m-5002 -188 c4 -47 9 -94 12 -103 2 -9 -7 6 -21 33 -13 28 -27 70
-30 95 -3 25 -8 61 -10 80 l-4 35 23 -26 c19 -22 24 -43 30 -114z m3836 27
c-9 -60 -46 -152 -55 -140 -1 2 3 46 9 98 8 64 17 105 31 124 17 26 20 27 24
11 2 -10 -2 -52 -9 -93z m-3379 -19 c-17 -24 -175 -163 -185 -163 -3 0 -6 7
-6 16 0 24 63 106 127 164 56 51 56 52 69 29 10 -19 9 -27 -5 -46z m2983 -14
c75 -79 93 -109 79 -133 -7 -13 -25 0 -97 73 -82 82 -87 90 -75 110 8 11 17
21 20 21 4 0 37 -32 73 -71z m-4635 45 c3 -2 -9 -18 -25 -35 -29 -30 -29 -31
-109 -24 -120 10 -123 11 -88 47 l28 29 95 -6 c52 -4 97 -9 99 -11z m6405 -13
l27 -29 -33 -5 c-18 -4 -64 -9 -103 -12 -68 -7 -71 -6 -99 23 l-28 31 33 5
c34 6 89 11 145 14 22 2 38 -6 58 -27z m-5119 -146 c-9 -84 -21 -88 -29 -10
-4 36 -9 80 -12 98 l-5 32 26 -30 c24 -28 26 -35 20 -90z m3649 38 c-10 -112
-18 -127 -33 -60 -11 50 -10 58 10 96 11 22 23 41 25 41 3 0 2 -35 -2 -77z
m-5046 27 l43 0 -28 -40 c-28 -39 -29 -39 -78 -34 -27 3 -74 10 -102 15 l-53
10 23 31 c22 30 23 30 87 24 36 -3 84 -6 108 -6z m6595 -15 c20 -28 28 -25
-103 -49 l-75 -14 -27 32 c-15 17 -27 34 -28 38 0 7 60 12 165 16 42 1 53 -2
68 -23z m-1821 -122 c57 -60 128 -238 128 -319 0 -26 -10 -87 -21 -137 l-21
-90 -23 69 c-36 110 -63 172 -121 276 -30 53 -57 111 -60 130 l-5 33 18 -25
c10 -14 45 -55 79 -91 49 -55 65 -81 87 -145 30 -90 26 -39 -5 63 -17 58 -125
223 -146 223 -5 0 -13 27 -18 59 l-10 59 46 -38 c25 -21 57 -51 72 -67z
m-3065 -32 c-92 -97 -144 -193 -160 -296 -7 -44 -1 -33 28 48 11 30 39 73 74
110 32 34 68 78 81 97 20 27 25 31 28 17 2 -10 -29 -77 -69 -149 -49 -89 -83
-166 -104 -235 l-32 -104 -23 78 c-36 121 -37 161 -5 259 34 104 84 183 156
248 l54 49 3 -43 c3 -37 -1 -48 -31 -79z m-249 65 c10 -27 10 -43 0 -80 -16
-60 -28 -41 -28 47 0 74 9 85 28 33z m3514 -86 c-5 -33 -6 -34 -13 -10 -10 34
-11 94 -2 117 10 25 22 -61 15 -107z m1694 80 c15 -22 25 -42 23 -44 -2 -3
-53 -6 -113 -7 -103 -3 -110 -2 -124 19 -8 13 -13 25 -10 27 2 3 42 11 87 19
46 8 86 17 89 20 12 12 23 5 48 -34z m-6773 4 c37 -4 67 -10 67 -13 0 -4 -6
-16 -14 -27 -14 -19 -22 -20 -123 -16 -59 2 -110 6 -112 8 -2 1 7 17 19 34 21
29 27 32 59 26 20 -3 66 -9 104 -12z m-1068 -15 c13 -39 128 -143 200 -181 83
-43 120 -53 240 -68 92 -11 204 -36 217 -48 7 -7 -10 -91 -21 -104 -4 -4 -31
-1 -61 7 -30 8 -91 20 -135 26 -44 6 -107 18 -139 26 -182 45 -326 182 -326
311 0 53 13 69 25 31z m8775 -35 c0 -77 -49 -159 -132 -219 -79 -59 -136 -78
-329 -114 -90 -17 -173 -33 -185 -37 -18 -5 -22 1 -32 47 -7 29 -9 55 -5 59
16 13 97 31 226 50 173 25 269 69 370 171 37 38 67 76 67 84 0 8 5 15 10 15 6
0 10 -25 10 -56z m-7693 -48 c4 -4 -70 -182 -81 -193 -6 -7 -33 -16 -59 -19
-55 -8 -57 -2 -27 64 11 23 15 40 9 36 -6 -4 -21 -30 -34 -58 l-23 -51 -46 3
c-56 5 -57 7 -8 127 l37 90 65 5 c54 4 160 2 167 -4z m6823 -5 c5 -11 23 -55
39 -98 16 -43 32 -86 36 -95 6 -16 1 -18 -48 -18 l-55 0 -17 50 c-9 27 -21 52
-26 55 -11 8 -11 8 6 -40 20 -57 19 -65 -12 -65 -63 1 -82 20 -124 119 -21 52
-39 95 -39 97 0 2 46 5 103 7 56 1 107 4 114 5 7 1 17 -7 23 -17z m-5680 -27
c163 -37 316 -151 358 -266 12 -31 24 -88 27 -125 l6 -68 -34 82 c-30 74 -95
172 -133 204 -23 19 -16 2 21 -54 51 -76 77 -158 81 -257 l5 -85 -20 45 c-65
153 -203 310 -324 369 -88 42 -226 71 -346 71 -52 0 -92 -2 -90 -4 2 -3 63
-16 134 -31 184 -36 322 -104 422 -206 63 -63 112 -163 209 -424 6 -18 4 -17
-20 5 -15 13 -61 83 -104 154 -157 264 -289 353 -575 386 -184 21 -249 47
-312 124 -19 24 -35 45 -35 47 0 2 39 3 87 1 64 -2 135 6 258 27 184 33 260
34 385 5z m4695 -6 c61 -11 162 -23 225 -27 l115 -6 -39 -42 c-52 -58 -122
-90 -241 -109 -221 -35 -261 -44 -330 -78 -142 -71 -227 -159 -325 -336 -54
-97 -109 -175 -117 -166 -9 8 66 206 109 290 30 58 64 103 117 157 118 118
216 161 540 235 50 11 10 13 -109 4 -153 -12 -222 -29 -325 -79 -138 -68 -235
-173 -310 -334 l-34 -72 0 60 c-1 106 30 204 100 315 l23 35 -38 -35 c-46 -43
-79 -98 -117 -193 -28 -71 -28 -72 -29 -32 0 95 46 211 110 275 72 72 265 149
410 163 57 5 148 -3 265 -25z m-6910 -91 c37 -50 121 -109 202 -141 34 -14
126 -37 205 -51 175 -31 208 -41 208 -63 0 -9 -7 -57 -15 -107 -8 -49 -15
-113 -15 -140 l0 -51 -137 4 c-76 1 -168 7 -205 13 -90 14 -196 67 -265 131
l-56 53 7 125 c13 258 18 306 30 286 6 -11 25 -37 41 -59z m8801 -182 l7 -170
-58 -53 c-117 -107 -221 -140 -450 -143 l-150 -1 -8 83 c-4 46 -13 116 -21
156 l-13 71 61 15 c33 9 114 25 178 36 134 24 211 50 283 96 55 35 119 101
138 143 12 26 12 26 19 -18 3 -25 10 -122 14 -215z m-7816 72 c0 -2 -7 -26
-15 -55 -15 -50 -16 -51 -61 -58 -25 -3 -47 -4 -51 -1 -3 3 0 28 7 56 l12 50
46 4 c26 2 50 4 55 5 4 1 7 1 7 -1z m6836 -7 c27 0 32 -4 37 -29 3 -16 9 -41
13 -56 l7 -28 -49 8 c-27 4 -50 8 -52 10 -2 2 -9 26 -17 55 -14 52 -14 52 8
46 12 -3 36 -6 53 -6z m-6976 -17 c0 -10 -5 -35 -11 -55 -9 -35 -12 -38 -47
-37 -65 1 -70 7 -54 62 l13 47 50 0 c40 0 49 -3 49 -17z m7154 -29 c9 -26 15
-49 13 -50 -2 -2 -28 -6 -59 -10 l-55 -6 -7 38 c-4 22 -9 46 -11 54 -4 12 7
16 49 18 l54 3 16 -47z m-6298 -130 c20 -51 39 -92 41 -90 2 2 -6 41 -17 86
-10 46 -18 86 -15 88 2 2 12 1 23 -3 14 -4 31 -32 52 -83 51 -122 126 -259
136 -249 2 2 -21 75 -51 162 -30 87 -53 160 -52 161 2 2 13 1 25 -3 26 -7 45
-41 102 -184 38 -95 97 -205 106 -196 2 2 -23 84 -55 183 -32 98 -57 181 -56
183 10 10 54 -53 79 -114 96 -233 149 -314 246 -378 l45 -29 -45 7 c-60 10
-113 38 -160 85 -45 45 -52 40 -16 -13 68 -100 164 -141 317 -135 86 3 89 2
57 -11 -22 -10 -67 -15 -138 -14 -92 0 -116 4 -188 31 -222 83 -393 269 -486
530 -31 87 -31 92 -7 85 12 -3 31 -35 57 -99z m5388 34 c-57 -170 -167 -340
-271 -423 -32 -25 -103 -68 -158 -96 -125 -62 -216 -79 -331 -61 -118 19 -113
27 15 27 111 0 119 1 183 33 46 22 76 46 97 74 42 56 39 67 -6 28 -43 -38
-101 -65 -158 -75 l-40 -7 45 29 c90 59 141 134 217 318 49 119 85 175 114
175 6 0 4 -10 -3 -22 -14 -27 -117 -332 -113 -336 8 -9 80 126 130 244 52 121
59 134 82 134 18 0 24 -4 20 -14 -3 -8 -11 -34 -17 -58 -7 -24 -30 -89 -52
-146 -22 -57 -38 -105 -35 -108 10 -10 90 129 130 227 34 84 47 105 65 107 27
4 27 8 1 -90 -11 -44 -18 -82 -16 -84 2 -2 18 33 36 77 53 130 106 168 65 47z
m-6159 -99 c-8 -57 -16 -122 -17 -144 -3 -36 -7 -41 -38 -52 -37 -13 -170 -17
-208 -7 -25 7 -25 2 5 154 28 146 30 150 66 150 18 0 43 -3 56 -7 24 -6 24
-12 5 -113 -4 -22 -3 -22 5 -5 5 11 15 41 21 67 12 44 15 48 49 53 20 4 43 7
51 9 8 1 16 2 18 1 1 -1 -4 -49 -13 -106z m6928 96 c20 -3 37 -11 37 -16 0 -6
7 -36 17 -67 20 -72 29 -53 10 22 l-15 55 37 6 c20 4 46 8 58 11 19 4 23 -4
41 -84 30 -131 44 -213 37 -221 -9 -9 -194 -8 -227 2 -31 8 -32 10 -47 157 -6
58 -14 116 -18 129 -5 19 -3 22 13 18 10 -3 36 -8 57 -12z m-1162 -18 c-6 -8
-28 -61 -50 -119 -46 -124 -64 -160 -104 -211 -27 -34 -129 -97 -158 -97 -17
0 18 37 68 72 62 42 107 108 149 215 33 86 88 172 102 159 3 -3 0 -12 -7 -19z
m-4586 -93 c54 -153 94 -210 210 -298 22 -17 33 -32 26 -34 -21 -7 -118 47
-150 84 -34 38 -81 127 -101 189 -7 22 -23 66 -36 97 -13 32 -24 61 -24 65 1
21 59 -60 75 -103z m-2058 -137 c89 -56 154 -70 346 -76 l179 -6 4 -51 4 -51
-46 -7 c-87 -12 -288 -7 -347 9 -78 20 -163 65 -214 111 -39 36 -42 43 -45
101 l-4 61 40 -33 c23 -18 60 -44 83 -58z m8745 31 c-3 -59 -6 -65 -46 -103
-58 -55 -133 -93 -213 -110 -69 -15 -277 -20 -345 -9 l-38 7 0 53 0 54 150 0
c82 0 173 5 202 11 69 14 203 79 253 123 22 20 40 35 41 36 0 0 -1 -28 -4 -62z
m-7892 -141 l0 -44 -52 -12 c-29 -7 -91 -15 -138 -18 l-86 -6 6 54 5 54 100
-3 c83 -2 116 1 163 17 1 1 2 -18 2 -42z m7087 25 c51 1 94 0 96 -3 3 -2 8
-26 12 -53 l7 -49 -95 6 c-53 4 -116 12 -141 18 -46 11 -46 12 -46 54 l0 43
38 -9 c20 -5 79 -8 129 -7z m-7927 -92 c105 -53 166 -63 351 -57 l166 5 7
-111 c3 -62 9 -131 12 -153 l6 -41 -78 -13 c-142 -22 -262 -24 -334 -5 -73 19
-185 77 -199 103 -9 17 -51 290 -51 332 0 22 0 21 31 -5 18 -14 58 -39 89 -55z
m8715 13 c-4 -38 -16 -117 -26 -178 -21 -122 -22 -123 -116 -169 -117 -58
-225 -68 -409 -40 l-105 17 5 36 c5 30 26 243 26 261 0 3 84 5 188 5 180 0
190 1 262 28 41 15 98 45 125 66 28 22 52 40 54 40 2 1 0 -29 -4 -66z m-7866
-223 c1 -62 -1 -67 -26 -82 -37 -21 -124 -45 -195 -54 l-58 -6 0 38 c0 22 -3
89 -6 150 l-7 111 90 7 c49 4 112 13 139 20 l49 12 6 -65 c4 -36 7 -95 8 -131z
m7095 165 l99 -7 -6 -145 c-3 -79 -7 -147 -10 -150 -13 -12 -175 19 -226 43
l-54 27 7 81 c3 45 6 104 6 133 l0 51 43 -13 c23 -7 87 -16 141 -20z m-2288
-337 c8 -78 -8 -138 -47 -182 -30 -35 -101 -66 -148 -66 -33 0 -111 36 -111
50 0 7 6 8 19 0 32 -17 109 -12 151 10 69 35 109 120 110 235 1 69 19 37 26
-47z m-2689 45 c-2 -108 26 -173 94 -223 45 -32 110 -40 164 -20 42 16 19 -9
-29 -31 -47 -21 -67 -23 -118 -9 -106 30 -152 126 -132 274 8 55 22 61 21 9z
m-2098 -54 c1 -32 -3 -37 -43 -57 -43 -20 -221 -61 -230 -51 -2 2 -7 29 -10
59 l-7 55 86 12 c47 7 109 23 138 36 l52 24 7 -21 c3 -12 6 -37 7 -57z m7022
21 c28 -6 70 -10 92 -10 l40 0 -6 -56 c-3 -31 -8 -59 -11 -62 -12 -11 -155 20
-215 48 l-64 30 7 38 c3 20 6 44 6 53 0 14 7 13 50 -8 27 -13 72 -28 101 -33z
m-4756 15 c29 -28 31 -42 8 -67 -21 -24 -39 -23 -57 4 -19 27 -21 59 -4 76 17
17 26 15 53 -13z m-3143 -10 c127 -71 328 -83 530 -30 24 6 27 4 33 -27 16
-90 17 -89 -60 -111 -106 -30 -277 -29 -375 2 -82 25 -131 48 -143 65 -4 6
-12 29 -18 51 -5 22 -12 48 -15 58 -7 22 -5 22 48 -8z m5536 13 c26 -26 0 -88
-38 -88 -38 0 -51 40 -24 78 17 24 43 29 62 10z m3116 -45 c-7 -32 -13 -61
-14 -65 0 -12 -105 -55 -180 -74 -123 -30 -279 -22 -407 21 -8 3 -9 14 -3 37
4 18 11 45 14 59 l5 25 98 -17 c178 -33 319 -19 433 41 30 16 58 29 62 29 3 1
0 -25 -8 -56z m-7730 -220 c14 -56 26 -104 26 -106 0 -16 -108 -69 -176 -86
-45 -11 -122 -37 -173 -56 -182 -70 -277 -81 -395 -45 -58 18 -68 25 -85 58
-21 42 -105 263 -114 304 l-7 26 40 -19 c114 -55 311 -66 450 -24 46 14 87 25
91 25 4 0 18 -31 30 -70 13 -38 24 -68 26 -67 1 2 -4 32 -11 68 -7 35 -12 67
-10 70 2 3 41 11 87 18 47 7 106 23 133 35 l49 23 7 -26 c3 -14 18 -72 32
-128z m6869 132 c30 -14 91 -31 136 -37 91 -14 88 -8 66 -108 -7 -36 -12 -66
-10 -68 4 -4 45 129 45 147 0 15 5 15 101 -15 137 -42 316 -32 446 26 23 10
43 17 43 15 0 -19 -69 -215 -97 -277 -35 -76 -37 -78 -92 -99 -76 -28 -181
-35 -256 -16 -50 13 -254 79 -410 134 -22 7 -52 24 -67 36 l-27 22 32 132 c18
73 33 133 33 133 1 0 26 -11 57 -25z m-5826 -109 c33 -66 52 -176 53 -308 0
-120 -4 -138 -31 -138 -18 0 -19 6 -14 73 6 80 3 79 -14 -5 -12 -56 -12 -57
-41 -47 -15 6 -35 18 -44 28 -16 17 -15 25 10 107 22 73 27 110 28 204 0 63
-3 128 -7 145 l-8 29 21 -19 c12 -11 33 -42 47 -69z m4742 29 c-17 -69 -5
-222 26 -329 25 -86 25 -90 8 -107 -10 -10 -30 -21 -45 -24 -29 -8 -30 -5 -49
125 -6 43 -7 34 -4 -43 3 -96 3 -98 -18 -95 -21 3 -22 6 -21 148 1 147 15 234
51 305 17 33 54 77 60 71 2 -2 -1 -25 -8 -51z m-5726 -235 l15 -40 -41 -24
c-23 -13 -74 -35 -113 -49 -40 -14 -141 -56 -225 -92 -180 -78 -231 -87 -334
-60 -63 17 -68 21 -96 69 -16 28 -29 54 -29 57 0 4 19 0 43 -9 27 -10 76 -16
137 -16 87 0 105 3 215 43 66 24 158 54 205 68 108 31 155 51 176 74 24 27 29
24 47 -21z m6698 24 c19 -23 77 -50 139 -64 30 -7 96 -28 145 -47 242 -93 345
-103 489 -47 17 6 15 0 -11 -47 -29 -49 -37 -56 -95 -77 -99 -35 -167 -27
-314 38 -65 29 -171 72 -235 97 -63 24 -128 55 -144 67 -27 21 -27 24 -14 59
14 41 21 44 40 21z m-6641 -146 c13 -24 43 -73 68 -111 25 -37 43 -69 41 -70
-17 -12 -170 -97 -174 -97 -10 0 -114 101 -165 161 l-49 55 103 38 c57 20 112
43 122 51 27 20 28 20 54 -27z m6611 18 c24 -13 81 -36 126 -51 l82 -28 -22
-31 c-12 -17 -56 -66 -98 -110 -59 -61 -82 -78 -97 -74 -11 3 -56 27 -100 53
l-79 47 46 62 c25 33 57 82 71 109 14 26 26 47 26 47 1 0 21 -11 45 -24z
m-6863 -148 c22 -29 65 -80 96 -113 31 -32 52 -62 48 -65 -54 -46 -138 -104
-181 -126 -116 -57 -270 -40 -346 40 -53 55 -173 231 -152 223 9 -3 43 -12 77
-19 80 -16 137 -4 282 61 62 28 118 51 124 51 7 0 30 -24 52 -52z m7236 -8
c140 -62 212 -73 295 -45 29 9 54 15 57 13 7 -8 -111 -173 -161 -224 -44 -45
-58 -53 -113 -64 -128 -26 -230 4 -359 107 l-62 50 28 21 c15 11 59 61 97 112
45 59 74 89 84 86 8 -2 68 -28 134 -56z m-6131 19 l44 -21 -23 -70 c-35 -105
-85 -208 -102 -208 -20 0 -80 65 -88 95 -4 17 4 36 32 71 20 27 48 73 62 102
15 28 27 52 29 52 1 0 22 -10 46 -21z m4907 -24 c12 -24 42 -68 67 -96 l46
-51 -21 -44 c-18 -37 -70 -84 -93 -84 -14 0 -119 267 -108 273 17 9 84 45 86
46 0 1 11 -19 23 -44z m-4050 -104 c-6 -25 -31 -90 -56 -143 -24 -54 -51 -126
-59 -160 -17 -72 -20 -224 -5 -233 6 -4 10 8 10 28 0 47 34 177 61 229 33 66
111 189 116 184 8 -8 -25 -109 -62 -191 -20 -43 -34 -79 -32 -81 8 -8 114 140
133 186 l21 51 13 -45 c16 -60 10 -80 -51 -162 -56 -75 -151 -260 -190 -367
-13 -37 -27 -67 -30 -67 -9 0 -48 161 -63 261 l-13 84 -8 -59 c-11 -80 -1
-187 25 -269 12 -38 19 -71 17 -74 -8 -7 -57 82 -74 135 -20 61 -22 238 -4
312 23 92 64 171 131 250 65 78 103 147 117 215 l8 40 3 -39 c2 -22 -2 -60 -8
-85z m3175 -29 c10 -15 39 -54 65 -87 62 -81 77 -105 100 -167 48 -130 61
-254 39 -373 -11 -63 -47 -143 -73 -164 -20 -17 -20 -19 5 59 23 74 38 276 22
304 -7 14 -14 -8 -27 -91 -17 -110 -45 -227 -53 -219 -3 2 -33 70 -68 151 -42
97 -90 185 -140 261 -71 105 -76 117 -70 152 7 44 25 78 25 49 0 -35 49 -113
106 -167 l57 -55 -36 66 c-32 59 -67 166 -67 209 0 16 46 -59 105 -172 36 -70
65 -168 65 -225 0 -17 5 -35 11 -39 8 -5 10 24 7 102 -4 97 -9 120 -42 204
-77 195 -87 224 -92 284 l-5 61 24 -58 c14 -31 33 -70 42 -85z m-3930 118 c10
0 11 -9 4 -40 -12 -53 -54 -163 -74 -193 -16 -25 -71 -46 -61 -23 24 55 66
171 77 214 9 37 17 51 27 47 7 -3 20 -5 27 -5z m4684 -46 c7 -26 27 -84 45
-129 l34 -83 -25 -5 c-20 -4 -27 3 -48 43 -23 46 -56 138 -69 192 -5 22 -2 27
16 30 32 6 34 4 47 -48z m903 -83 c16 -9 28 -19 28 -23 0 -9 -56 -48 -70 -48
-6 0 -46 20 -90 45 l-79 46 37 33 36 34 56 -36 c30 -19 67 -43 82 -51z m-6367
52 l34 -27 -37 -26 c-20 -15 -56 -37 -79 -50 l-42 -23 -42 27 -41 28 23 16
c42 29 133 82 141 82 5 0 24 -12 43 -27z m149 -107 c12 -46 12 -46 -121 -46
l-128 1 54 32 c30 18 66 42 80 53 l25 22 42 -21 c24 -11 45 -30 48 -41z m6061
8 c41 -25 75 -47 75 -50 0 -2 -52 -4 -115 -4 l-114 0 -15 29 -15 29 47 20 c26
11 50 21 54 21 4 1 41 -20 83 -45z m-5691 -73 c11 -13 31 -27 44 -32 27 -10
27 -17 3 -48 l-18 -23 -37 32 c-20 18 -48 52 -62 76 -24 41 -25 43 -7 61 17
18 19 18 37 -12 10 -16 28 -41 40 -54z m5235 80 c28 -18 -25 -115 -87 -160
l-30 -21 -22 30 c-16 22 -18 30 -7 30 22 0 93 66 107 100 13 32 17 34 39 21z
m-5950 -30 c34 -28 34 -29 13 -40 -11 -6 -58 -43 -104 -83 -102 -87 -172 -122
-248 -122 -49 -1 -62 4 -107 37 -84 61 -84 62 26 62 92 0 101 2 171 37 41 20
102 60 135 87 33 28 65 50 70 50 6 0 25 -12 44 -28z m391 19 c0 -5 -4 -10 -10
-10 -5 0 -10 5 -10 10 0 6 5 10 10 10 6 0 10 -4 10 -10z m6315 -47 c39 -31 99
-70 135 -87 56 -26 77 -31 145 -31 44 0 94 3 110 8 l30 7 -40 -36 c-86 -77
-109 -87 -172 -79 -81 10 -147 43 -228 114 -38 33 -84 71 -101 83 l-31 22 36
27 c20 15 38 28 41 28 3 0 37 -25 75 -56z m-6255 40 c0 -10 -32 -43 -42 -43
-5 0 -1 11 8 25 15 23 34 33 34 18z m5715 -23 c10 -11 14 -20 8 -20 -5 0 -18
9 -28 20 -10 11 -14 20 -8 20 5 0 18 -9 28 -20z m-50 -71 c21 -8 38 -23 44
-38 87 -232 110 -281 144 -318 20 -22 20 -23 1 -23 -36 0 -209 48 -268 74 -68
30 -166 99 -215 150 -55 57 -11 45 46 -12 56 -56 154 -107 231 -120 62 -11 58
-3 -11 22 -58 22 -150 83 -195 129 l-34 35 46 42 c26 24 56 64 68 90 l22 47
43 -33 c23 -18 58 -38 78 -45z m-5511 36 c3 -13 31 -51 61 -83 l55 -60 -59
-51 c-58 -50 -161 -111 -211 -124 -13 -3 -21 -9 -18 -12 10 -10 122 22 175 49
27 13 70 47 98 75 27 28 58 51 69 51 18 0 17 -3 -10 -31 -82 -87 -232 -170
-372 -205 -123 -31 -128 -31 -104 4 33 46 62 109 99 215 39 115 44 123 79 131
14 4 46 20 72 36 26 16 50 30 53 30 4 0 10 -11 13 -25z m-439 -35 c38 -11 82
-20 97 -20 l28 0 -44 -67 c-23 -38 -55 -92 -71 -120 -61 -115 -132 -156 -231
-134 -71 16 -176 60 -237 98 l-47 31 46 11 c74 19 154 64 229 131 86 76 125
102 145 96 8 -3 46 -14 85 -26z m6040 20 c18 -8 17 -9 -7 -9 -15 -1 -30 4 -33
9 -7 12 12 12 40 0z m348 -12 c18 -13 58 -46 89 -75 73 -67 123 -98 189 -118
98 -30 97 -27 27 -68 -65 -39 -229 -97 -274 -97 -41 0 -102 38 -135 82 -16 24
-53 82 -80 130 -28 48 -54 90 -60 93 -21 14 -6 23 49 29 31 4 77 16 102 26 59
24 57 24 93 -2z m-6150 5 c-7 -2 -19 -2 -25 0 -7 3 -2 5 12 5 14 0 19 -2 13
-5z m-115 -10 c-10 -2 -28 -2 -40 0 -13 2 -5 4 17 4 22 1 32 -1 23 -4z m6040
0 c-10 -2 -26 -2 -35 0 -10 3 -2 5 17 5 19 0 27 -2 18 -5z m-5943 -40 c-5 -10
-26 -67 -47 -127 -41 -112 -70 -167 -106 -199 -16 -14 -34 -17 -93 -15 l-73 3
40 26 c44 29 62 54 154 211 43 73 70 108 84 111 44 9 48 8 41 -10z m466 -16
c-12 -20 -30 -33 -46 -35 -30 -4 -31 2 -6 37 11 16 30 27 46 29 l27 2 -21 -33z
m4928 4 l21 -30 -21 -6 c-16 -6 -27 0 -45 21 -30 37 -30 44 0 44 16 0 32 -11
45 -29z m498 -9 c12 -14 44 -67 70 -116 30 -57 69 -113 105 -148 l56 -58 -67
0 c-63 0 -69 2 -98 33 -37 39 -55 73 -103 197 -21 52 -40 103 -45 112 -6 16
-3 17 26 12 19 -3 44 -18 56 -32z m-4344 -157 c31 -171 28 -204 -29 -338 l-34
-82 69 72 c63 64 71 78 82 131 l13 60 50 -107 c47 -98 51 -112 51 -181 0 -91
-15 -131 -94 -248 -118 -177 -156 -279 -174 -481 l-12 -133 -46 64 c-26 35
-53 77 -62 93 -24 47 -47 147 -47 202 0 65 42 225 90 340 20 51 34 90 30 88
-15 -9 -127 -220 -149 -280 -13 -33 -25 -89 -28 -125 -6 -73 10 -192 33 -235
20 -39 18 -42 -12 -14 -44 41 -82 102 -99 164 -33 111 -2 311 90 591 60 184
114 305 179 402 24 37 50 79 57 95 7 15 16 24 19 20 4 -5 15 -48 23 -98z
m2796 7 c108 -165 147 -256 227 -530 81 -281 93 -436 40 -540 -26 -52 -81
-122 -96 -122 -4 0 1 24 13 53 17 43 21 74 22 174 l0 122 -69 135 c-38 73 -79
147 -93 162 l-24 29 26 -52 c48 -99 96 -264 102 -348 8 -121 -31 -249 -97
-320 -16 -16 -36 -43 -44 -60 -16 -29 -16 -29 -16 50 -1 211 -45 350 -173 539
-81 121 -98 163 -98 240 0 47 8 84 31 142 41 106 67 153 73 134 3 -8 10 -34
16 -58 9 -30 31 -62 77 -110 53 -55 63 -62 53 -37 -65 173 -69 189 -69 252 0
55 29 248 36 240 1 -1 30 -44 63 -95z m-2511 -600 c-3 -42 -18 -87 -55 -167
-28 -60 -58 -137 -66 -170 -14 -55 -30 -182 -22 -174 1 2 17 47 35 99 17 53
60 144 97 207 36 62 66 113 67 113 11 0 -22 -138 -59 -245 -49 -143 -65 -227
-64 -325 1 -64 1 -64 28 70 31 147 83 300 90 259 1 -13 21 -93 42 -178 34
-136 39 -168 39 -271 0 -84 -6 -139 -20 -195 -24 -93 -24 -102 -4 -55 26 58
74 258 74 306 0 24 3 44 8 44 12 0 59 -82 76 -133 24 -73 21 -206 -10 -350
-18 -88 -25 -152 -26 -232 0 -150 21 -215 107 -332 36 -48 77 -112 91 -141 25
-51 25 -54 8 -79 l-17 -27 -17 62 c-29 104 -78 161 -190 217 -82 41 -138 91
-186 166 -69 106 -87 212 -65 364 5 33 23 150 40 259 17 110 31 206 31 215 -1
9 -23 -72 -51 -179 -27 -107 -52 -202 -55 -210 -3 -9 -14 6 -28 40 -13 30 -38
87 -55 127 -35 79 -61 224 -61 338 0 49 -3 65 -10 55 -5 -8 -10 -78 -10 -155
0 -155 11 -213 60 -325 37 -84 38 -95 5 -74 -35 23 -122 167 -142 233 -19 68
-13 264 12 356 23 87 116 270 175 345 73 93 98 133 112 180 16 50 22 36 16
-38z m2175 3 c8 -17 47 -72 86 -124 148 -197 200 -337 208 -556 5 -126 3 -146
-16 -196 -25 -66 -111 -193 -142 -210 -27 -14 -26 -10 27 116 32 76 39 107 46
200 5 61 5 142 0 180 l-8 70 -13 -123 c-16 -154 -31 -213 -86 -332 -24 -52
-45 -104 -48 -115 -6 -30 -11 -14 -66 205 -28 107 -50 187 -50 177 -1 -21 21
-174 54 -370 40 -240 30 -336 -47 -455 -50 -76 -106 -128 -190 -172 -35 -19
-86 -57 -113 -84 -42 -42 -55 -64 -71 -121 -20 -65 -22 -68 -33 -46 -21 38 -4
83 69 187 39 55 78 117 89 139 46 100 54 260 20 427 -23 117 -35 283 -25 350
4 25 23 73 44 107 l36 62 13 -75 c7 -41 26 -118 44 -171 32 -103 49 -127 23
-35 -10 36 -15 100 -15 185 0 120 2 139 34 245 19 63 38 139 42 169 l7 54 34
-87 c20 -49 45 -143 58 -219 l24 -132 1 83 c1 101 -20 212 -61 312 -17 41 -34
89 -39 105 -9 28 -28 155 -23 155 3 0 109 -180 129 -220 10 -19 31 -73 47
-120 l29 -85 -6 67 c-7 80 -34 172 -81 277 -41 89 -64 171 -63 221 1 32 1 33
8 10 5 -14 15 -39 24 -55z m-1440 -147 c26 -28 47 -56 47 -61 0 -5 -21 10 -47
34 -27 25 -65 55 -85 68 -21 12 -38 27 -38 32 0 22 79 -25 123 -73z m797 67
c0 -3 -19 -16 -41 -31 -23 -14 -62 -44 -87 -67 -49 -45 -48 -36 4 29 18 22 48
48 66 57 33 16 58 22 58 12z m-318 -767 l103 -43 130 0 c120 1 171 8 280 42
24 7 -61 -59 -105 -82 -17 -9 -64 -25 -103 -35 -60 -16 -66 -19 -36 -19 43 -1
49 -11 49 -85 0 -66 -23 -142 -54 -181 l-23 -29 5 96 c5 110 -11 167 -22 75
-11 -94 -79 -263 -129 -319 -33 -38 -39 -35 -19 10 19 42 24 254 7 271 -7 7
-10 -19 -11 -77 -2 -102 -28 -184 -104 -327 -30 -56 -50 -109 -54 -140 l-7
-50 34 70 33 70 8 -83 c4 -49 19 -119 36 -170 l30 -87 -5 105 c-3 58 -8 137
-12 177 l-6 72 99 94 c55 52 129 120 166 151 37 31 77 70 90 86 l24 30 27 -82
c56 -170 25 -317 -103 -493 -54 -75 -69 -103 -98 -175 -16 -41 -3 64 19 152
11 46 19 112 19 160 0 104 -15 133 -23 46 -3 -35 -22 -109 -42 -163 -45 -126
-52 -188 -31 -289 23 -114 21 -144 -19 -224 -36 -71 -75 -120 -61 -75 24 75
33 247 16 288 -7 17 -9 15 -9 -13 -1 -53 -42 -224 -63 -267 -11 -22 -42 -70
-68 -106 -58 -80 -80 -121 -80 -151 0 -19 -2 -20 -10 -8 -5 8 -10 45 -10 82 0
62 4 75 60 184 l60 117 -1 86 -2 86 -7 -75 c-8 -79 -29 -129 -109 -259 -49
-78 -57 -126 -38 -220 8 -39 12 -71 8 -71 -15 1 -74 93 -87 136 -27 92 -15
163 60 329 65 146 81 282 46 398 -16 55 -22 40 -9 -23 23 -109 -9 -237 -95
-381 -62 -103 -81 -167 -73 -252 l5 -61 -30 53 c-38 66 -44 117 -24 202 43
185 30 263 -74 467 -47 93 -75 160 -84 207 l-14 70 -1 -50 c-1 -67 20 -142 60
-212 116 -206 130 -278 85 -437 l-22 -80 -12 90 c-20 148 -69 268 -176 429
-120 179 -131 209 -131 350 0 92 4 119 23 168 l24 58 35 -41 c19 -22 70 -67
112 -100 42 -32 108 -90 147 -128 l72 -68 4 -105 c4 -78 11 -117 28 -159 35
-82 41 -82 19 1 -15 57 -18 89 -12 139 4 36 6 71 4 78 -5 28 17 9 37 -34 13
-26 25 -44 28 -41 15 15 -21 141 -72 251 -53 111 -58 128 -64 211 -6 91 -10
89 -25 -12 -7 -48 14 -141 46 -204 l21 -41 -34 25 c-18 14 -43 38 -54 54 -37
51 -106 235 -112 298 -4 47 -7 54 -13 35 -10 -36 -10 -118 0 -162 10 -41 3
-48 -21 -20 -40 46 -61 135 -52 218 l7 54 46 1 46 1 -63 13 c-35 8 -86 25
-115 38 -54 25 -176 104 -144 93 108 -36 190 -50 302 -50 125 0 116 -2 285 62
80 31 116 28 232 -20z m-802 -205 c0 -17 -9 -60 -20 -95 -11 -34 -20 -76 -20
-93 1 -23 11 -8 44 67 23 54 46 95 49 91 14 -13 7 -133 -13 -228 -45 -218 -17
-341 121 -532 58 -80 121 -194 113 -202 -7 -8 -52 40 -111 118 -31 42 -96 117
-144 167 -48 50 -96 109 -107 131 -52 101 -67 305 -32 434 11 41 29 112 41
159 11 47 23 92 26 100 8 22 53 -78 53 -117z m1380 108 c0 -10 17 -81 37 -157
33 -124 37 -151 36 -254 -1 -201 -32 -279 -163 -415 -47 -49 -105 -117 -127
-150 -22 -33 -53 -71 -68 -85 l-27 -25 7 35 c7 35 16 53 118 213 31 49 66 114
78 145 30 80 35 197 14 292 -20 87 -30 208 -20 247 6 24 12 14 50 -82 37 -91
44 -104 45 -75 0 19 -9 64 -20 100 -25 83 -25 133 1 187 22 45 39 56 39 24z
m-1233 -27 c20 -6 21 -11 20 -97 -1 -51 2 -110 6 -132 l8 -40 -33 49 c-29 43
-32 57 -36 137 -3 49 -1 89 4 89 5 0 19 -3 31 -6z m1061 -82 c-3 -77 -7 -94
-31 -131 -16 -24 -30 -41 -32 -39 -2 2 1 24 6 48 6 25 8 80 5 122 -7 83 -10
77 47 87 5 0 7 -39 5 -87z"/>
<path d="M3908 7410 c-37 -31 -74 -86 -102 -153 -22 -55 -3 -37 56 51 28 42
60 87 71 99 31 35 15 36 -25 3z"/>
<path d="M6300 7432 c0 -5 6 -15 14 -21 8 -7 41 -52 72 -102 32 -49 62 -89 66
-89 11 0 -40 110 -68 147 -27 35 -84 80 -84 65z"/>
<path d="M4211 7239 c65 -62 189 -322 265 -554 37 -114 43 -100 15 37 -23 107
-68 239 -107 307 -56 96 -149 212 -189 234 -11 5 -4 -5 16 -24z"/>
<path d="M6023 7236 c-40 -34 -135 -169 -176 -251 -19 -38 -46 -106 -60 -151
-26 -83 -60 -244 -53 -251 2 -2 16 33 31 79 76 232 198 492 264 561 40 42 37
49 -6 13z"/>
<path d="M3812 7210 c-18 -4 -36 -11 -40 -15 -8 -8 78 4 118 16 22 6 21 7 -10
7 -19 0 -50 -4 -68 -8z"/>
<path d="M3950 7045 c59 -18 102 -39 140 -69 53 -41 165 -168 237 -271 42 -59
36 -35 -14 55 -23 42 -71 100 -132 161 -105 104 -156 132 -263 144 -50 5 -48
4 32 -20z"/>
<path d="M6267 7059 c-71 -17 -122 -52 -217 -148 -68 -68 -106 -117 -133 -167
-20 -40 -37 -75 -37 -80 0 -4 22 24 49 62 77 110 182 226 241 266 35 24 83 45
130 57 55 14 66 19 40 19 -19 0 -52 -4 -73 -9z"/>
<path d="M3879 6905 c93 -22 163 -57 221 -111 27 -26 50 -42 50 -37 0 6 -24
33 -53 60 -60 57 -137 90 -225 98 l-57 5 64 -15z"/>
<path d="M6304 6906 c-69 -17 -135 -57 -173 -105 -46 -58 -37 -60 22 -4 67 64
99 80 200 103 65 14 74 18 42 18 -22 0 -63 -5 -91 -12z"/>
<path d="M3690 6853 c-19 -10 -45 -33 -57 -52 -26 -38 -32 -68 -7 -33 8 12 34
32 57 43 68 35 144 23 278 -43 60 -30 109 -51 109 -47 0 13 -123 101 -170 121
-65 29 -166 34 -210 11z"/>
<path d="M6358 6847 c-59 -25 -137 -78 -176 -120 -18 -19 4 -11 97 36 97 49
131 61 180 65 52 4 67 1 105 -22 25 -14 52 -36 61 -48 8 -13 15 -18 15 -12 0
18 -43 76 -73 98 -43 31 -137 33 -209 3z"/>
<path d="M5397 6788 c-19 -24 -44 -63 -56 -86 -28 -55 -51 -175 -50 -255 l0
-62 19 86 c24 113 64 230 101 298 16 30 27 56 25 58 -2 2 -19 -15 -39 -39z"/>
<path d="M4822 6815 c2 -5 18 -39 35 -75 36 -76 68 -180 89 -287 8 -42 17 -79
19 -82 3 -2 5 23 5 56 0 143 -53 305 -121 368 -17 17 -30 26 -27 20z"/>
<path d="M5015 6555 c7 -89 25 -186 35 -180 9 6 -8 138 -25 200 l-15 50 5 -70z"/>
<path d="M5234 6564 c-26 -61 -37 -139 -27 -181 9 -36 10 -34 16 43 4 45 14
103 21 128 17 55 11 60 -10 10z"/>
<path d="M4150 6553 c0 -6 6 -16 14 -22 31 -26 162 -240 197 -322 42 -97 85
-246 94 -329 3 -30 13 -107 23 -170 l17 -115 6 105 c11 167 -6 418 -34 530
-22 85 -85 245 -93 237 -2 -1 10 -43 27 -92 29 -88 66 -271 56 -281 -3 -3 -11
12 -17 33 -20 61 -78 172 -135 258 -52 78 -155 190 -155 168z"/>
<path d="M6022 6495 c-93 -99 -153 -193 -208 -325 -15 -36 -23 -47 -24 -32 0
35 29 168 56 252 25 81 25 105 -1 44 -80 -189 -105 -342 -104 -625 l1 -204 18
95 c10 52 25 147 34 211 30 217 125 431 268 602 58 69 30 57 -40 -18z"/>
<path d="M3563 6490 c-18 -10 -40 -34 -49 -51 l-16 -33 42 37 c29 25 61 40
104 50 l61 15 -55 1 c-39 1 -65 -5 -87 -19z"/>
<path d="M6580 6496 c70 -15 112 -38 138 -73 16 -21 20 -23 16 -8 -7 26 -22
45 -58 73 -23 17 -41 22 -90 21 l-61 -1 55 -12z"/>
<path d="M4571 6478 c-1 -4 4 -19 9 -34 15 -39 67 -275 80 -369 24 -160 29
-163 25 -20 -2 106 -8 158 -24 214 -20 67 -88 226 -90 209z"/>
<path d="M5629 6403 c-60 -144 -71 -195 -75 -358 l-3 -150 19 123 c21 133 61
327 85 406 23 76 11 66 -26 -21z"/>
<path d="M6194 6402 c-128 -94 -201 -228 -250 -455 -19 -92 -16 -125 6 -57 67
211 159 393 240 478 65 67 66 79 4 34z"/>
<path d="M4048 6377 c91 -100 144 -203 229 -447 39 -112 43 -119 38 -70 -12
105 -60 269 -103 355 -28 56 -124 160 -174 189 -33 19 -33 19 10 -27z"/>
<path d="M3685 6165 c-5 -2 -23 -6 -39 -10 -52 -11 -21 -14 48 -4 79 11 170
-1 243 -31 48 -20 48 -20 25 0 -36 30 -117 50 -196 49 -39 0 -75 -2 -81 -4z"/>
<path d="M6385 6161 c-33 -9 -115 -49 -115 -56 0 -3 17 2 38 11 71 31 108 36
215 32 78 -3 103 -2 90 6 -22 13 -187 18 -228 7z"/>
<path d="M4974 5955 c28 -43 77 -162 107 -260 14 -49 18 -54 18 -29 2 74 -77
263 -130 309 -20 18 -19 15 5 -20z"/>
<path d="M5250 5950 c-48 -67 -124 -269 -108 -286 3 -2 20 37 38 88 18 51 47
123 65 161 18 37 32 67 30 67 -2 0 -13 -13 -25 -30z"/>
<path d="M3588 5798 c-18 -63 -15 -193 6 -255 12 -36 38 -76 84 -126 37 -41
69 -73 71 -71 2 2 -19 38 -47 81 -89 135 -97 161 -97 296 1 64 0 117 -2 117
-1 0 -8 -19 -15 -42z"/>
<path d="M4728 5818 c-37 -56 -69 -133 -82 -193 -7 -36 -10 -65 -6 -65 4 0 17
35 29 78 12 42 36 104 52 136 30 61 34 85 7 44z"/>
<path d="M5508 5790 c16 -30 44 -97 62 -148 18 -51 34 -91 37 -89 2 2 -2 28
-8 58 -13 65 -59 163 -94 204 -26 30 -26 30 3 -25z"/>
<path d="M6641 5734 c-1 -118 -26 -197 -91 -292 -27 -41 -50 -77 -50 -82 0 -5
31 24 69 64 54 57 73 85 85 126 19 64 20 179 1 235 -13 39 -13 38 -14 -51z"/>
<path d="M4991 5723 c10 -21 31 -90 48 -153 37 -144 53 -187 45 -115 -17 142
-67 291 -100 302 -7 2 -4 -12 7 -34z"/>
<path d="M5243 5748 c-32 -40 -56 -108 -60 -168 l-3 -65 28 95 c15 52 34 106
41 118 14 26 10 40 -6 20z"/>
<path d="M4648 5483 c-45 -87 -55 -132 -62 -268 l-5 -110 14 75 c8 41 22 113
31 160 9 47 27 112 40 144 13 33 22 61 20 63 -2 2 -19 -27 -38 -64z"/>
<path d="M5564 5504 c35 -73 44 -107 66 -254 12 -74 23 -136 25 -139 8 -7 6
61 -6 170 -10 108 -50 218 -90 255 -16 14 -15 9 5 -32z"/>
<path d="M5821 5436 c-56 -213 -62 -255 -57 -376 7 -160 24 -210 25 -75 1 116
13 225 42 377 28 148 22 195 -10 74z"/>
<path d="M4385 5504 c27 -125 58 -369 64 -494 l6 -155 13 78 c16 106 15 222
-4 315 -20 98 -64 254 -75 266 -4 5 -6 0 -4 -10z"/>
<path d="M4656 5169 c-9 -19 -32 -61 -51 -94 -19 -33 -46 -95 -60 -138 -29
-91 -32 -127 -5 -48 11 29 47 109 81 177 34 69 59 127 56 130 -3 4 -13 -9 -21
-27z"/>
<path d="M5565 5183 c3 -12 32 -78 64 -145 32 -68 64 -140 71 -161 6 -21 14
-36 16 -34 7 6 -36 137 -61 187 -41 82 -96 175 -90 153z"/>
<path d="M4617 4948 c-25 -53 -74 -255 -64 -264 7 -7 32 72 58 181 11 49 25
98 31 108 5 10 7 21 5 23 -3 3 -16 -19 -30 -48z"/>
<path d="M5604 4958 c8 -18 19 -60 26 -93 16 -84 52 -202 57 -189 8 22 -38
217 -63 265 -28 56 -40 65 -20 17z"/>
<path d="M4600 4668 c-31 -49 -74 -161 -68 -180 2 -5 27 44 55 109 29 64 51
118 50 120 -2 1 -18 -21 -37 -49z"/>
<path d="M5600 4717 c0 -3 25 -58 55 -124 34 -74 55 -109 55 -93 0 28 -59 158
-90 197 -11 14 -20 23 -20 20z"/>
<path d="M4710 4559 c74 -11 118 -28 225 -87 50 -27 92 -48 94 -46 8 7 -25 38
-69 66 -62 40 -189 78 -253 77 l-52 -1 55 -9z"/>
<path d="M5393 4546 c-83 -27 -126 -52 -168 -97 -36 -38 -37 -39 98 35 79 43
127 62 180 71 l72 13 -55 1 c-31 0 -86 -10 -127 -23z"/>
<path d="M4650 4372 c0 -25 68 -67 166 -103 116 -43 174 -73 239 -123 l40 -31
-23 31 c-54 77 -137 127 -287 176 -49 16 -100 36 -112 44 -13 8 -23 11 -23 6z"/>
<path d="M5545 4359 c-16 -10 -66 -31 -110 -45 -136 -45 -214 -91 -265 -157
-19 -24 -12 -21 60 22 45 27 128 65 184 86 81 28 111 45 142 76 41 42 37 49
-11 18z"/>
<path d="M5839 3979 c16 -30 37 -80 46 -111 17 -61 25 -194 13 -243 -7 -29 -6
-28 10 5 12 25 17 61 17 126 0 84 -3 95 -37 165 -21 41 -46 83 -57 93 -17 15
-15 8 8 -35z"/>
<path d="M4384 3978 c-67 -105 -88 -208 -64 -307 16 -67 29 -74 19 -9 -14 90
10 218 60 316 28 54 19 54 -15 0z"/>
<path d="M4668 3978 c6 -8 40 -34 75 -57 l62 -43 -45 42 c-47 44 -117 88 -92
58z"/>
<path d="M5514 3947 c-86 -63 -101 -89 -19 -32 82 57 103 75 88 75 -6 0 -37
-19 -69 -43z"/>
<path d="M4382 3805 c-26 -86 -9 -181 44 -250 15 -20 28 -34 30 -32 2 2 -8 32
-23 67 -18 45 -27 92 -32 160 -7 93 -7 94 -19 55z"/>
<path d="M5838 3739 c-3 -87 -8 -114 -31 -164 l-28 -59 25 23 c14 13 35 44 47
70 18 38 21 59 17 121 -7 126 -25 131 -30 9z"/>
<path d="M4540 3570 c0 -5 12 -10 28 -9 24 0 25 1 7 9 -27 12 -35 12 -35 0z"/>
<path d="M5680 3570 c-13 -8 -13 -10 2 -10 9 0 20 5 23 10 8 13 -5 13 -25 0z"/>
<path d="M4740 3513 c53 -24 194 -46 160 -25 -14 9 -194 53 -208 51 -4 0 18
-12 48 -26z"/>
<path d="M5433 3517 c-94 -22 -119 -37 -60 -37 37 0 113 22 154 44 37 20 17
19 -94 -7z"/>
<path d="M4585 3468 c31 -17 60 -22 135 -24 l95 -3 -84 9 c-46 5 -104 16 -129
24 -61 21 -65 19 -17 -6z"/>
<path d="M5635 3473 c-22 -8 -80 -18 -130 -22 l-90 -8 90 -1 c69 -1 100 3 133
18 23 10 42 21 42 25 0 3 -1 4 -2 4 -2 -1 -21 -8 -43 -16z"/>
<path d="M4787 8037 c50 -58 68 -122 60 -214 -15 -160 -121 -268 -274 -281
-116 -9 -202 45 -213 136 -6 42 -7 44 -14 20 -13 -45 23 -111 80 -144 44 -26
58 -29 134 -29 75 1 92 4 145 31 151 77 220 291 138 434 -15 28 -44 61 -63 73
l-35 22 42 -48z"/>
<path d="M5459 8058 c-21 -14 -45 -46 -64 -83 -80 -160 7 -369 181 -434 125
-47 254 -12 303 82 19 38 22 52 13 70 -10 20 -11 18 -11 -17 -1 -50 -57 -109
-121 -126 -133 -36 -269 29 -332 158 -29 59 -33 76 -33 147 1 90 23 146 78
196 38 35 32 37 -14 7z"/>
<path d="M3652 4557 c-1 -9 -20 -71 -42 -137 -46 -136 -52 -173 -14 -85 57
134 65 158 61 199 -2 23 -4 33 -5 23z"/>
<path d="M3836 4312 c-5 -35 -33 -105 -77 -194 -79 -158 -104 -229 -113 -308
l-6 -55 24 75 c14 41 56 138 96 215 56 112 73 155 81 212 6 40 9 81 7 90 -3
10 -8 -6 -12 -35z"/>
<path d="M6581 4538 c-1 -32 77 -243 86 -234 5 5 -38 149 -54 180 -9 17 -20
45 -24 61 -7 30 -7 30 -8 -7z"/>
<path d="M6401 4297 c-1 -64 26 -140 99 -279 33 -63 69 -148 80 -189 14 -54
19 -65 19 -41 2 64 -33 166 -101 301 -39 75 -76 163 -83 196 l-13 60 -1 -48z"/>
<path d="M4160 2934 c-20 -51 -30 -116 -31 -189 -1 -87 20 -141 76 -195 l36
-35 -31 61 c-47 94 -63 228 -41 342 9 48 5 55 -9 16z"/>
<path d="M6078 2829 c4 -132 -16 -229 -60 -284 -14 -18 -17 -26 -7 -23 22 7
88 99 99 138 5 19 10 54 10 77 0 49 -26 193 -37 204 -5 5 -6 -46 -5 -112z"/>
<path d="M4930 3181 c-85 -49 -113 -75 -125 -121 -5 -20 -2 -18 15 10 26 40
36 49 105 90 51 30 104 69 95 70 -3 0 -43 -22 -90 -49z"/>
<path d="M5026 3208 c-66 -39 -78 -78 -18 -57 35 12 226 8 256 -6 31 -14 15
15 -28 49 -32 26 -47 31 -104 34 -55 2 -74 -1 -106 -20z"/>
<path d="M5250 3206 c0 -3 29 -19 64 -35 35 -17 80 -49 100 -71 41 -45 47 -40
13 11 -13 20 -45 45 -77 61 -58 28 -100 43 -100 34z"/>
<path d="M5050 2863 c-25 -87 -23 -134 9 -198 34 -69 41 -49 15 42 -12 41 -14
74 -10 124 8 77 3 88 -14 32z"/>
<path d="M5231 2839 c-1 -25 -14 -85 -31 -134 -40 -120 -38 -127 10 -25 40 85
49 141 30 185 -7 15 -9 9 -9 -26z"/>
</g>
</svg>
